<svg xmlns="http://www.w3.org/2000/svg" xmlns:xlink="http://www.w3.org/1999/xlink" viewBox="0 0 119.541 25.619">
  <defs>
    <linearGradient id="linear-gradient" x1="0.954" y1="0.5" x2="-0.072" y2="0.5" gradientUnits="objectBoundingBox">
      <stop offset="0" stop-color="#880a7b"/>
      <stop offset="1" stop-color="#2e2786"/>
    </linearGradient>
  </defs>
  <path id="União_2" data-name="União 2" d="M-1158.223,39.62V30.187h-5.583V39.62h-6.764V15.05h6.764v8.864h5.583V15.05h6.764V39.62Zm-27.289-.032c-7.1-.132-12.132-5.231-12.132-12.29v0c0-7.152,5.171-12.293,12.416-12.293,7.227,0,12.379,5.125,12.379,12.3a11.855,11.855,0,0,1-12.1,12.29Zm-5.667-12.29a5.94,5.94,0,0,0,5.951,6.291c3.433,0,5.917-2.632,5.917-6.291s-2.487-6.292-5.917-6.292A5.94,5.94,0,0,0-1191.179,27.3Zm-21.4,12.29c-7.1-.132-12.133-5.231-12.133-12.29v0c0-7.152,5.171-12.293,12.416-12.293,7.226,0,12.378,5.125,12.378,12.3a11.854,11.854,0,0,1-12.094,12.29Zm-5.668-12.29a5.94,5.94,0,0,0,5.952,6.291c3.433,0,5.917-2.632,5.917-6.291s-2.486-6.292-5.917-6.292A5.94,5.94,0,0,0-1218.252,27.3Zm-25.989,12.29V15.05h18.558v5.843h-12.062v3.613h9.887V30.05h-9.887v3.674h12.01v5.864Zm-8.3-.1L-1263.1,26.271V39.487h-6.9V15.05h6.267l10.31,12.873V15.05h6.9V39.487Z" transform="translate(1270.5 -14.5)" stroke="rgba(0,0,0,0)" stroke-miterlimit="10" stroke-width="1" fill="url(#linear-gradient)"/>
</svg>
